<?xml version="1.0" encoding="UTF-8"?>
<svg width="337px" height="250px" viewBox="0 0 337 250" version="1.1" xmlns="http://www.w3.org/2000/svg" xmlns:xlink="http://www.w3.org/1999/xlink">
    <!-- Generator: Sketch 52.5 (67469) - http://www.bohemiancoding.com/sketch -->
    <title>Illustrations / Parcel 16 digit code</title>
    <desc>Created with Sketch.</desc>
    <defs>
        <polygon id="path-1" points="0.0353023256 0.516860759 252.453925 0.516860759 252.453925 231.964759 0.0353023256 231.964759"></polygon>
        <path d="M0.0352136752,64.9007208 C0.448115643,57.8367762 4.46633084,51.4407993 10.7243248,48.0151467 L92.878416,3.05066667 C99.052547,-0.328533333 106.524302,-0.328533333 112.698433,3.05066667 L194.852524,48.0151467 C201.465066,51.63488 205.576849,58.57104 205.576849,66.10736 L205.576849,154.180107 C205.576849,161.71584 201.465066,168.652 194.852524,172.271733 L112.698433,217.236213 C106.524302,220.616 99.052547,220.616 92.878416,217.236213 L10.7243248,172.271733 C4.46633084,168.846081 0.448115643,162.450104 0.0352136752,155.386656" id="path-3"></path>
        <polygon id="path-5" points="0 0 150 0 150 97 0 97"></polygon>
        <circle id="path-7" cx="52.5" cy="154.5" r="51.5"></circle>
        <circle id="path-9" cx="52.5" cy="154.5" r="46.5"></circle>
    </defs>
    <g id="Illustrations-/-Parcel-16-digit-code" stroke="none" stroke-width="1" fill="none" fill-rule="evenodd">
        <g id="Parcel-closed" transform="translate(80.000000, 10.000000)">
            <g id="Group-4">
                <mask id="mask-2" fill="white">
                    <use xlink:href="#path-1"></use>
                </mask>
                <g id="Clip-2"></g>
                <path d="M0,66.1834329 L0,154.357529 C0,161.901934 4.12213488,168.846076 10.7513233,172.469975 L93.1122372,217.486197 C99.3019116,220.869873 106.792477,220.869873 112.982151,217.486197 L195.343065,172.469975 C201.972253,168.846076 206.094388,161.901934 206.094388,154.357529 L206.094388,66.1834329 C206.094388,58.6384405 201.972253,51.6942987 195.343065,48.0704 L112.982151,3.05417722 C106.792477,-0.328911392 99.3019116,-0.328911392 93.1122372,3.05417722 L10.7513233,48.0704 C4.12213488,51.6942987 0,58.6384405 0,66.1834329" id="Fill-3" fill="#7ECAD5" mask="url(#mask-2)"></path>
            </g>
            <g id="Group-17">
                <mask id="mask-4" fill="white">
                    <use xlink:href="#path-3"></use>
                </mask>
                <g id="Clip-6"></g>
                <path d="M95.5440912,218.45824 C94.6344046,218.117387 93.7440855,217.71024 92.878416,217.236213 L10.7243248,172.271733 C4.11178348,168.652 0,161.71584 0,154.180107 L0,66.10736 C0,62.8026667 0.790547009,59.6135467 2.23606838,56.7682133 C2.81415954,56.61744 3.41279202,56.53824 4.01846724,56.53824 C5.11185185,56.53824 6.22695157,56.7952 7.27749288,57.34432 C13.9317037,60.82208 22.1024501,65.14816 30.8237037,69.7928 C51.1719259,80.6631467 75.0151054,93.46656 89.5078803,101.25632 C90.2062849,101.631787 90.9164274,101.973813 91.6371339,102.2824 C98.2796068,105.15648 102.659014,111.60336 102.613823,118.839893 C102.607954,119.721653 102.602672,120.653867 102.596803,121.63184 C102.596217,121.69344 102.59563,121.754453 102.595043,121.816053 C102.583305,123.74912 102.572741,125.733227 102.564524,127.7584 C102.457709,149.154133 102.349721,184.28256 102.332701,208.1904 C102.329766,212.890773 99.4698291,216.776853 95.5440912,218.45824 M60.3961481,155.514187 C57.752188,155.514187 55.3553105,157.637333 55.3553105,160.55776 L55.3553105,177.433813 C55.3553105,179.341653 56.4334359,181.085813 58.1407123,181.93824 L81.843037,193.785387 C82.5801766,194.1544 83.3472479,194.32336 84.0937778,194.32336 C86.7383248,194.323947 89.1346154,192.200213 89.1346154,189.280373 L89.1346154,172.403733 C89.1346154,170.495893 88.05649,168.751733 86.3498006,167.89872 L62.6474758,156.05216 C61.9097493,155.683733 61.143265,155.514187 60.3961481,155.514187 M82.0959886,186.17456 C81.8964444,186.17456 81.6945527,186.132907 81.5026382,186.04256 L60.3902792,176.194187 C59.6848319,175.863893 59.3814074,175.029067 59.7100684,174.32272 C59.9495214,173.812907 60.458359,173.512533 60.9883248,173.512533 C61.1872821,173.512533 61.3885869,173.554773 61.5805014,173.643947 L82.6928604,183.49232 C83.3977208,183.822027 83.7017322,184.65744 83.3730712,185.363787 C83.1336182,185.874773 82.6265413,186.17456 82.0959886,186.17456 M82.0959886,177.732427 C81.8964444,177.732427 81.6945527,177.691947 81.5026382,177.600427 L60.3902792,167.752053 C59.6848319,167.422933 59.3814074,166.586933 59.7100684,165.881173 C59.9495214,165.370187 60.4571852,165.069227 60.9865641,165.069227 C61.1861083,165.069227 61.388,165.112053 61.5805014,165.2024 L82.6928604,175.050773 C83.3977208,175.38048 83.7017322,176.215893 83.3730712,176.92224 C83.1336182,177.433227 82.6265413,177.732427 82.0959886,177.732427" id="Fill-5" fill="#77BCC9" mask="url(#mask-4)"></path>
                <path d="M212.52392,85.9472533 L208.925083,77.9064 C209.145168,78.1058667 208.453219,73.4999467 207.51184,68.89344 C206.575157,64.30864 205.39139,59.72384 204.613168,59.8781333 C204.613168,59.8781333 199.100467,55.2364267 195.691197,57.09792 L115.783738,100.723627 C115.559544,100.856213 115.334764,100.984693 115.107635,101.11024 C107.510872,105.30432 102.64845,113.1416 102.595043,121.816053 C102.423083,149.771893 102.599738,188.370453 102.711835,207.70816 C102.752917,214.83792 107.543151,221.0648 114.426251,222.938027 L197.751197,245.612693 C197.751197,245.612693 221.883715,181.174987 221.883715,178.373067 C221.883715,175.571147 212.52392,85.9472533 212.52392,85.9472533" id="Fill-7" fill="#70AEBC" mask="url(#mask-4)"></path>
                <path d="M162.958325,67.8626667 C155.167299,63.18928 98.5489915,31.6893867 69.7682678,15.6997867 L44.8587009,29.3333333 L137.339789,82.8895467 C137.339789,82.8895467 142.354217,86.2693333 141.697481,95.0247467 C141.346519,100.099413 140.646353,104.480053 140.646353,104.480053 C140.646353,104.480053 140.996142,110.215307 145.200068,108.3984 C149.404581,106.581493 162.366735,100.277173 165.17033,98.52656 C167.972752,96.77536 168.561994,95.80736 168.709305,91.6432 C168.709305,86.7404267 168.629487,80.0970133 168.629487,76.6826133 C168.629487,73.2676267 167.800792,71.0377067 162.958325,67.8626667" id="Fill-8" fill="#FFFFFE" mask="url(#mask-4)"></path>
                <path d="M102.788718,219.770613 C102.770524,219.770613 102.75233,219.770613 102.734724,219.770613 C103.045778,217.70496 103.380895,215.51376 103.735379,213.22752 C104.591658,215.49264 105.955014,217.5272 107.706895,219.176907 C106.091761,219.572907 104.440239,219.770613 102.788718,219.770613" id="Fill-9" fill="#77BCC9" mask="url(#mask-4)"></path>
                <path d="M143.682946,108.75392 C140.907521,108.75392 140.646353,104.480053 140.646353,104.480053 C140.646353,104.480053 141.346519,100.099413 141.697481,95.0247467 C141.912872,92.1536 141.518479,89.8609067 140.890501,88.0750933 L168.099521,73.1960533 C168.510348,74.26496 168.629487,75.3890133 168.629487,76.6826133 C168.629487,80.0970133 168.709305,86.7404267 168.709305,91.6432 C168.561994,95.80736 167.972752,96.77536 165.17033,98.52656 C162.366735,100.277173 149.404581,106.581493 145.200068,108.3984 C144.624912,108.647147 144.12253,108.75392 143.682946,108.75392" id="Fill-11" fill="#D1D1D4" mask="url(#mask-4)"></path>
                <path d="M102.171305,104.444267 C98.5894872,104.444267 95.0023875,103.725013 91.6371339,102.2824 C91.6259829,102.277707 91.614245,102.272427 91.603094,102.267733 C90.8941254,101.962667 90.1951339,101.625333 89.5078803,101.25632 C75.5984786,93.77984 51.6443761,80.8808 30.8237037,69.7928 C22.9241026,65.5729067 15.5491852,61.6428267 9.45545869,58.41264 C5.8759886,56.5147733 5.53969801,51.49056 8.86152137,49.17088 C9.45663248,48.7549333 10.0781538,48.3689067 10.7249117,48.0151467 L92.878416,3.05066667 C94.6936809,2.05744 96.6204558,1.35578667 98.5935954,0.94688 C99.976906,0.659413333 101.382519,0.516266667 102.788718,0.516266667 C106.199749,0.516266667 109.611368,1.36106667 112.698433,3.05066667 L194.852524,48.0151467 L194.925886,48.0556267 C194.932342,48.0591467 194.938211,48.0626667 194.944667,48.0661867 C198.65208,50.1294933 198.583413,55.49808 194.870131,57.5461333 L167.716866,72.3706133 C166.923972,70.9233067 165.489014,69.5223467 162.958325,67.8626667 C155.167299,63.18928 98.5489915,31.6893867 69.7682678,15.6997867 L44.8587009,29.3333333 L137.339789,82.8895467 C137.339789,82.8895467 139.241915,84.172 140.549516,87.20272 L115.783738,100.723627 C115.776695,100.727733 115.768479,100.732427 115.761436,100.73712 C115.758501,100.738293 115.756154,100.740053 115.753806,100.741227 C115.747937,100.744747 115.742655,100.748267 115.736786,100.7512 C115.735026,100.752373 115.733852,100.75296 115.732091,100.754133 C111.551054,103.210507 106.864701,104.444267 102.171305,104.444267" id="Fill-12" fill="#99D4DD" mask="url(#mask-4)"></path>
                <path d="M91.6371339,102.2824 C90.9164274,101.973813 90.2062849,101.631787 89.5078803,101.25632 C75.0151054,93.46656 51.1719259,80.6631467 30.8237037,69.7928 C51.6443761,80.8808 75.5984786,93.77984 89.5078803,101.25632 C90.1951339,101.625333 90.8941254,101.962667 91.603094,102.267733 C91.614245,102.272427 91.6259829,102.277707 91.6371339,102.2824" id="Fill-13" fill="#E8A17D" mask="url(#mask-4)"></path>
                <path d="M115.732091,100.754133 C115.733852,100.75296 115.735026,100.752373 115.736786,100.7512 C115.735026,100.752373 115.733852,100.75296 115.732091,100.754133 M115.753806,100.741227 C115.756154,100.740053 115.758501,100.738293 115.761436,100.73712 C115.758501,100.738293 115.756154,100.740053 115.753806,100.741227 M115.783738,100.723627 L140.549516,87.20272 L115.783738,100.723627 M167.716866,72.3706133 L194.870131,57.5461333 C194.863088,57.5496533 194.855459,57.5543467 194.848416,57.5578667 L167.716866,72.3706133" id="Fill-14" fill="#EB9A88" mask="url(#mask-4)"></path>
                <path d="M140.549516,87.20272 C139.241915,84.172 137.339789,82.8895467 137.339789,82.8895467 L44.8587009,29.3333333 L69.7682678,15.6997867 C98.5489915,31.6893867 155.167299,63.18928 162.958325,67.8626667 C165.489014,69.5223467 166.923972,70.9233067 167.716866,72.3706133 L140.549516,87.20272" id="Fill-15" fill="#FFFFFE" mask="url(#mask-4)"></path>
                <path d="M84.0937778,194.32336 C83.3472479,194.32336 82.5801766,194.1544 81.843037,193.785387 L58.1407123,181.93824 C56.4334359,181.085813 55.3553105,179.341653 55.3553105,177.433813 L55.3553105,160.55776 C55.3553105,157.637333 57.752188,155.514187 60.3961481,155.514187 C61.143265,155.514187 61.9097493,155.683733 62.6474758,156.05216 L86.3498006,167.89872 C88.05649,168.751733 89.1346154,170.495893 89.1346154,172.403733 L89.1346154,189.280373 C89.1346154,192.200213 86.7383248,194.323947 84.0937778,194.32336 M60.9883248,173.512533 C60.458359,173.512533 59.9495214,173.812907 59.7100684,174.32272 C59.3814074,175.029067 59.6848319,175.863893 60.3902792,176.194187 L81.5026382,186.04256 C81.6945527,186.132907 81.8964444,186.17456 82.0959886,186.17456 C82.6265413,186.17456 83.1336182,185.874773 83.3730712,185.363787 C83.7017322,184.65744 83.3977208,183.822027 82.6928604,183.49232 L61.5805014,173.643947 C61.3885869,173.554773 61.1872821,173.512533 60.9883248,173.512533 M60.9865641,165.069227 C60.4571852,165.069227 59.9495214,165.370187 59.7100684,165.881173 C59.3814074,166.586933 59.6848319,167.422933 60.3902792,167.752053 L81.5026382,177.600427 C81.6945527,177.691947 81.8964444,177.732427 82.0959886,177.732427 C82.6265413,177.732427 83.1336182,177.433227 83.3730712,176.92224 C83.7017322,176.215893 83.3977208,175.38048 82.6928604,175.050773 L61.5805014,165.2024 C61.388,165.112053 61.1861083,165.069227 60.9865641,165.069227" id="Fill-16" fill="#D3E7EA" mask="url(#mask-4)"></path>
            </g>
        </g>
        <g id="Group-3" style="mix-blend-mode: multiply;" transform="translate(181.000000, 144.000000)">
            <mask id="mask-6" fill="white">
                <use xlink:href="#path-5"></use>
            </mask>
            <g id="Clip-2"></g>
            <path d="M29.2975706,96.9999998 C23.801025,96.9999998 18.2969657,95.6194402 13.2928551,92.8468113 C9.35510905,90.6651932 4.86944234,88.1803009 0,85.4847854 C0.931118292,85.6125404 1.86917229,85.6769934 2.80664831,85.6769934 C3.83833431,85.6769934 4.87002032,85.5993046 5.89245872,85.4439268 C8.22516724,85.0905864 10.5104818,84.3326885 12.640321,83.171384 L94.1614325,38.7299073 C100.722609,35.1521918 104.803115,28.2965821 104.803115,20.8470843 L104.803115,0 L146.431211,23.485628 L146.532357,23.5431753 C151.242856,26.2289077 151.114546,33.2796027 146.389597,35.9382879 L46.5021629,92.1533664 C41.200973,95.3800434 35.2536066,97.0005753 29.2975706,96.9999998" id="Fill-1" fill="#EAEAE4" mask="url(#mask-6)"></path>
        </g>
        <polygon id="Rectangle" fill="#E1ECF2" points="88.1907514 117 142 185.656552 55 205"></polygon>
        <mask id="mask-8" fill="white">
            <use xlink:href="#path-7"></use>
        </mask>
        <use id="Oval" fill="#0091CD" xlink:href="#path-7"></use>
        <mask id="mask-10" fill="white">
            <use xlink:href="#path-9"></use>
        </mask>
        <use id="Oval" fill="#E1ECF2" xlink:href="#path-9"></use>
        <path d="M17.2960822,172 C16.8518496,172 16.4571308,171.881286 16.1119139,171.643855 C15.7666971,171.406423 15.495077,171.061455 15.2970456,170.608939 C15.0990142,170.156422 15,169.620115 15,169 C15,168.379885 15.0990142,167.843578 15.2970456,167.391061 C15.495077,166.938545 15.7666971,166.593577 16.1119139,166.356145 C16.4571308,166.118714 16.8518496,166 17.2960822,166 C17.7349626,166 18.1270053,166.118714 18.4722222,166.356145 C18.8174391,166.593577 19.0890592,166.938545 19.2870906,167.391061 C19.4851219,167.843578 19.5841362,168.379885 19.5841362,169 C19.5841362,169.620115 19.4851219,170.156422 19.2870906,170.608939 C19.0890592,171.061455 18.8174391,171.406423 18.4722222,171.643855 C18.1270053,171.881286 17.7349626,172 17.2960822,172 Z M17.2960822,171.25419 C17.745667,171.25419 18.105597,171.061454 18.3758831,170.675978 C18.6461692,170.290501 18.7813102,169.731847 18.7813102,169 C18.7813102,168.268153 18.6461692,167.709499 18.3758831,167.324022 C18.105597,166.938546 17.745667,166.74581 17.2960822,166.74581 C16.8411452,166.74581 16.4785391,166.938546 16.2082531,167.324022 C15.937967,167.709499 15.8028259,168.268153 15.8028259,169 C15.8028259,169.731847 15.937967,170.290501 16.2082531,170.675978 C16.4785391,171.061454 16.8411452,171.25419 17.2960822,171.25419 Z M22.0728966,166.067039 L22.0728966,171.932961 L21.2780989,171.932961 L21.2780989,166.796089 L20.0096339,166.796089 L20.0096339,166.067039 L22.0728966,166.067039 Z M25.5973025,172 C25.1530699,172 24.7583511,171.881286 24.4131342,171.643855 C24.0679173,171.406423 23.7962973,171.061455 23.5982659,170.608939 C23.4002345,170.156422 23.3012203,169.620115 23.3012203,169 C23.3012203,168.379885 23.4002345,167.843578 23.5982659,167.391061 C23.7962973,166.938545 24.0679173,166.593577 24.4131342,166.356145 C24.7583511,166.118714 25.1530699,166 25.5973025,166 C26.0361829,166 26.4282256,166.118714 26.7734425,166.356145 C27.1186594,166.593577 27.3902795,166.938545 27.5883109,167.391061 C27.7863422,167.843578 27.8853565,168.379885 27.8853565,169 C27.8853565,169.620115 27.7863422,170.156422 27.5883109,170.608939 C27.3902795,171.061455 27.1186594,171.406423 26.7734425,171.643855 C26.4282256,171.881286 26.0361829,172 25.5973025,172 Z M25.5973025,171.25419 C26.0468873,171.25419 26.4068173,171.061454 26.6771034,170.675978 C26.9473895,170.290501 27.0825305,169.731847 27.0825305,169 C27.0825305,168.268153 26.9473895,167.709499 26.6771034,167.324022 C26.4068173,166.938546 26.0468873,166.74581 25.5973025,166.74581 C25.1423655,166.74581 24.7797594,166.938546 24.5094733,167.324022 C24.2391873,167.709499 24.1040462,168.268153 24.1040462,169 C24.1040462,169.731847 24.2391873,170.290501 24.5094733,170.675978 C24.7797594,171.061454 25.1423655,171.25419 25.5973025,171.25419 Z M32.6942839,166.067039 L32.6942839,166.636872 L30.4222864,171.932961 L29.5712909,171.932961 L31.7951188,166.796089 L29.2260758,166.796089 L29.2260758,167.843575 L28.4553629,167.843575 L28.4553629,166.067039 L32.6942839,166.067039 Z M35.5362877,172 C35.0920552,172 34.6973363,171.881286 34.3521195,171.643855 C34.0069026,171.406423 33.7352825,171.061455 33.5372511,170.608939 C33.3392197,170.156422 33.2402055,169.620115 33.2402055,169 C33.2402055,168.379885 33.3392197,167.843578 33.5372511,167.391061 C33.7352825,166.938545 34.0069026,166.593577 34.3521195,166.356145 C34.6973363,166.118714 35.0920552,166 35.5362877,166 C35.9751681,166 36.3672109,166.118714 36.7124277,166.356145 C37.0576446,166.593577 37.3292647,166.938545 37.5272961,167.391061 C37.7253275,167.843578 37.8243417,168.379885 37.8243417,169 C37.8243417,169.620115 37.7253275,170.156422 37.5272961,170.608939 C37.3292647,171.061455 37.0576446,171.406423 36.7124277,171.643855 C36.3672109,171.881286 35.9751681,172 35.5362877,172 Z M35.5362877,171.25419 C35.9858725,171.25419 36.3458025,171.061454 36.6160886,170.675978 C36.8863747,170.290501 37.0215157,169.731847 37.0215157,169 C37.0215157,168.268153 36.8863747,167.709499 36.6160886,167.324022 C36.3458025,166.938546 35.9858725,166.74581 35.5362877,166.74581 C35.0813508,166.74581 34.7187447,166.938546 34.4484586,167.324022 C34.1781725,167.709499 34.0430315,168.268153 34.0430315,169 C34.0430315,169.731847 34.1781725,170.290501 34.4484586,170.675978 C34.7187447,171.061454 35.0813508,171.25419 35.5362877,171.25419 Z M42.6332691,166.067039 L42.6332691,166.636872 L40.3612717,171.932961 L39.5102762,171.932961 L41.734104,166.796089 L39.165061,166.796089 L39.165061,167.843575 L38.3943481,167.843575 L38.3943481,166.067039 L42.6332691,166.067039 Z M45.4271034,168.530726 C45.97838,168.586592 46.3985214,168.763965 46.6875401,169.062849 C46.9765589,169.361733 47.1210662,169.743014 47.1210662,170.206704 C47.1210662,170.541901 47.0407844,170.844971 46.8802184,171.115922 C46.7196524,171.386873 46.480145,171.601955 46.1616891,171.761173 C45.8432333,171.920392 45.4538666,172 44.9935774,172 C44.5921624,172 44.2068098,171.937151 43.837508,171.811453 C43.4682062,171.685754 43.1658115,171.511174 42.9303147,171.287709 L43.2996146,170.625698 C43.4922938,170.815643 43.7384913,170.967877 44.0382145,171.082402 C44.3379377,171.196928 44.6563888,171.25419 44.9935774,171.25419 C45.411049,171.25419 45.7361902,171.162012 45.9690109,170.977654 C46.2018316,170.793295 46.3182402,170.539108 46.3182402,170.215084 C46.3182402,169.89106 46.2031696,169.639666 45.973025,169.460894 C45.7428805,169.282122 45.3949927,169.192737 44.9293513,169.192737 L44.4797688,169.192737 L44.4797688,168.606145 L45.8927425,166.796089 L43.187219,166.796089 L43.187219,166.067039 L46.8962749,166.067039 L46.8962749,166.636872 L45.4271034,168.530726 Z M50.1637765,172 C49.7195439,172 49.3248251,171.881286 48.9796082,171.643855 C48.6343913,171.406423 48.3627713,171.061455 48.1647399,170.608939 C47.9667085,170.156422 47.8676943,169.620115 47.8676943,169 C47.8676943,168.379885 47.9667085,167.843578 48.1647399,167.391061 C48.3627713,166.938545 48.6343913,166.593577 48.9796082,166.356145 C49.3248251,166.118714 49.7195439,166 50.1637765,166 C50.6026569,166 50.9946996,166.118714 51.3399165,166.356145 C51.6851334,166.593577 51.9567535,166.938545 52.1547848,167.391061 C52.3528162,167.843578 52.4518304,168.379885 52.4518304,169 C52.4518304,169.620115 52.3528162,170.156422 52.1547848,170.608939 C51.9567535,171.061455 51.6851334,171.406423 51.3399165,171.643855 C50.9946996,171.881286 50.6026569,172 50.1637765,172 Z M50.1637765,171.25419 C50.6133613,171.25419 50.9732913,171.061454 51.2435774,170.675978 C51.5138635,170.290501 51.6490045,169.731847 51.6490045,169 C51.6490045,168.268153 51.5138635,167.709499 51.2435774,167.324022 C50.9732913,166.938546 50.6133613,166.74581 50.1637765,166.74581 C49.7088395,166.74581 49.3462334,166.938546 49.0759473,167.324022 C48.8056612,167.709499 48.6705202,168.268153 48.6705202,169 C48.6705202,169.731847 48.8056612,170.290501 49.0759473,170.675978 C49.3462334,171.061454 49.7088395,171.25419 50.1637765,171.25419 Z M56.6586384,168.857542 C56.9797704,168.986034 57.2259679,169.17039 57.3972383,169.410615 C57.5685087,169.650839 57.6541426,169.938546 57.6541426,170.273743 C57.6541426,170.6257 57.5631566,170.931563 57.3811818,171.191341 C57.199207,171.451119 56.9396292,171.650837 56.6024406,171.790503 C56.265252,171.930168 55.8691952,172 55.4142582,172 C54.9646734,172 54.5726307,171.930168 54.2381182,171.790503 C53.9036057,171.650837 53.6453659,171.451119 53.4633911,171.191341 C53.2814163,170.931563 53.1904303,170.6257 53.1904303,170.273743 C53.1904303,169.938546 53.2747262,169.650839 53.4433205,169.410615 C53.6119148,169.17039 53.8567742,168.986034 54.1779062,168.857542 C53.9210006,168.72905 53.7256483,168.55866 53.5918433,168.346369 C53.4580383,168.134077 53.3911368,167.882683 53.3911368,167.592179 C53.3911368,167.268155 53.4754327,166.986035 53.644027,166.74581 C53.8126213,166.505585 54.0494526,166.32123 54.3545279,166.192737 C54.6596033,166.064245 55.0128432,166 55.4142582,166 C55.8210254,166 56.1782793,166.064245 56.4860308,166.192737 C56.7937823,166.32123 57.0319516,166.505585 57.2005459,166.74581 C57.3691402,166.986035 57.4534361,167.268155 57.4534361,167.592179 C57.4534361,167.877096 57.3851966,168.127094 57.2487155,168.342179 C57.1122344,168.557264 56.915544,168.72905 56.6586384,168.857542 Z M55.4142582,166.678771 C55.034252,166.678771 54.7345333,166.763966 54.5150931,166.934358 C54.2956529,167.104749 54.1859345,167.335194 54.1859345,167.625698 C54.1859345,167.916203 54.2943149,168.145251 54.511079,168.312849 C54.7278431,168.480448 55.0288998,168.564246 55.4142582,168.564246 C55.8049688,168.564246 56.1113776,168.480448 56.3334939,168.312849 C56.5556102,168.145251 56.6666667,167.916203 56.6666667,167.625698 C56.6666667,167.335194 56.5529341,167.104749 56.3254656,166.934358 C56.0979971,166.763966 55.7942644,166.678771 55.4142582,166.678771 Z M55.4142582,171.321229 C55.8584908,171.321229 56.2090546,171.224861 56.4659602,171.032123 C56.7228658,170.839385 56.8513166,170.578214 56.8513166,170.248603 C56.8513166,169.924579 56.7228658,169.668995 56.4659602,169.481844 C56.2090546,169.294692 55.8584908,169.201117 55.4142582,169.201117 C54.9700256,169.201117 54.6221378,169.294692 54.3705845,169.481844 C54.1190311,169.668995 53.9932563,169.924579 53.9932563,170.248603 C53.9932563,170.578214 54.1190311,170.839385 54.3705845,171.032123 C54.6221378,171.224861 54.9700256,171.321229 55.4142582,171.321229 Z M60.6888247,172 C60.2445921,172 59.8498733,171.881286 59.5046564,171.643855 C59.1594395,171.406423 58.8878194,171.061455 58.6897881,170.608939 C58.4917567,170.156422 58.3927425,169.620115 58.3927425,169 C58.3927425,168.379885 58.4917567,167.843578 58.6897881,167.391061 C58.8878194,166.938545 59.1594395,166.593577 59.5046564,166.356145 C59.8498733,166.118714 60.2445921,166 60.6888247,166 C61.127705,166 61.5197478,166.118714 61.8649647,166.356145 C62.2101816,166.593577 62.4818016,166.938545 62.679833,167.391061 C62.8778644,167.843578 62.9768786,168.379885 62.9768786,169 C62.9768786,169.620115 62.8778644,170.156422 62.679833,170.608939 C62.4818016,171.061455 62.2101816,171.406423 61.8649647,171.643855 C61.5197478,171.881286 61.127705,172 60.6888247,172 Z M60.6888247,171.25419 C61.1384094,171.25419 61.4983395,171.061454 61.7686256,170.675978 C62.0389116,170.290501 62.1740527,169.731847 62.1740527,169 C62.1740527,168.268153 62.0389116,167.709499 61.7686256,167.324022 C61.4983395,166.938546 61.1384094,166.74581 60.6888247,166.74581 C60.2338877,166.74581 59.8712816,166.938546 59.6009955,167.324022 C59.3307094,167.709499 59.1955684,168.268153 59.1955684,169 C59.1955684,169.731847 59.3307094,170.290501 59.6009955,170.675978 C59.8712816,171.061454 60.2338877,171.25419 60.6888247,171.25419 Z M67.6734104,171.203911 L67.6734104,171.932961 L63.6351959,171.932961 L63.6351959,171.363128 L65.9232498,169.058659 C66.2015642,168.779328 66.3888884,168.537711 66.485228,168.333799 C66.5815676,168.129887 66.6297367,167.924582 66.6297367,167.717877 C66.6297367,167.410613 66.5267084,167.171789 66.3206487,167.001397 C66.114589,166.831005 65.8188844,166.74581 65.433526,166.74581 C64.8126708,166.74581 64.3336561,166.958098 63.9964676,167.382682 L63.4505459,166.888268 C63.6699861,166.608937 63.9576625,166.391062 64.3135838,166.234637 C64.6695051,166.078212 65.0669,166 65.5057803,166 C66.0945223,166 66.5628328,166.146647 66.9107258,166.439944 C67.2586187,166.733242 67.4325626,167.131282 67.4325626,167.634078 C67.4325626,167.946929 67.3683372,168.243015 67.2398844,168.522346 C67.1114316,168.801677 66.8679102,169.12011 66.5093128,169.477654 L64.7912653,171.203911 L67.6734104,171.203911 Z M70.1541426,166 C70.9088027,166 71.4908457,166.254187 71.900289,166.76257 C72.3097323,167.270952 72.5144509,167.991615 72.5144509,168.924581 C72.5144509,169.578216 72.4033944,170.135473 72.1812781,170.596369 C71.9591618,171.057265 71.6487389,171.406423 71.25,171.643855 C70.8512611,171.881286 70.3869648,172 69.857097,172 C69.5841348,172 69.3272331,171.970671 69.0863841,171.912011 C68.8455351,171.853352 68.6368024,171.768157 68.4601798,171.656425 L68.7652537,171.002793 C69.0382159,171.187152 69.3994839,171.27933 69.8490687,171.27933 C70.4324585,171.27933 70.8887267,171.090784 71.217887,170.713687 C71.5470472,170.33659 71.7116249,169.787713 71.7116249,169.067039 L71.7116249,168.857542 C71.5510589,169.10894 71.328946,169.300279 71.0452794,169.431564 C70.7616128,169.56285 70.4431617,169.628492 70.0899165,169.628492 C69.7206147,169.628492 69.3901213,169.555867 69.0984265,169.410615 C68.8067316,169.265362 68.5792665,169.057264 68.4160244,168.786313 C68.2527823,168.515362 68.1711625,168.203912 68.1711625,167.851955 C68.1711625,167.483238 68.2581344,167.159219 68.4320809,166.879888 C68.6060274,166.600557 68.8428587,166.384079 69.1425819,166.230447 C69.4423051,166.076815 69.7794886,166 70.1541426,166 Z M70.2263969,168.949721 C70.4779503,168.949721 70.7027393,168.899442 70.9007707,168.798883 C71.0988021,168.698324 71.2526755,168.561453 71.3623956,168.388268 C71.4721157,168.215083 71.526975,168.022347 71.526975,167.810056 C71.526975,167.603351 71.4747918,167.414805 71.3704239,167.244413 C71.266056,167.074021 71.1135206,166.937151 70.9128131,166.833799 C70.7121056,166.730446 70.4699222,166.678771 70.1862556,166.678771 C69.8169538,166.678771 69.5185732,166.782122 69.2911047,166.988827 C69.0636362,167.195532 68.9499037,167.472065 68.9499037,167.818436 C68.9499037,168.164806 69.0649742,168.439943 69.2951188,168.643855 C69.5252634,168.847766 69.8356863,168.949721 70.2263969,168.949721 Z M75.0032113,166.067039 L75.0032113,171.932961 L74.2084136,171.932961 L74.2084136,166.796089 L72.9399486,166.796089 L72.9399486,166.067039 L75.0032113,166.067039 Z M80.3259473,166.067039 L80.3259473,166.636872 L78.0539499,171.932961 L77.2029544,171.932961 L79.4267823,166.796089 L76.8577392,166.796089 L76.8577392,167.843575 L76.0870263,167.843575 L76.0870263,166.067039 L80.3259473,166.067039 Z M84.3240206,168.857542 C84.6451525,168.986034 84.89135,169.17039 85.0626204,169.410615 C85.2338908,169.650839 85.3195247,169.938546 85.3195247,170.273743 C85.3195247,170.6257 85.2285387,170.931563 85.0465639,171.191341 C84.8645891,171.451119 84.6050113,171.650837 84.2678227,171.790503 C83.9306342,171.930168 83.5345773,172 83.0796403,172 C82.6300556,172 82.2380128,171.930168 81.9035003,171.790503 C81.5689878,171.650837 81.3107481,171.451119 81.1287733,171.191341 C80.9467985,170.931563 80.8558125,170.6257 80.8558125,170.273743 C80.8558125,169.938546 80.9401083,169.650839 81.1087026,169.410615 C81.2772969,169.17039 81.5221564,168.986034 81.8432884,168.857542 C81.5863828,168.72905 81.3910304,168.55866 81.2572254,168.346369 C81.1234204,168.134077 81.0565189,167.882683 81.0565189,167.592179 C81.0565189,167.268155 81.1408148,166.986035 81.3094091,166.74581 C81.4780034,166.505585 81.7148347,166.32123 82.0199101,166.192737 C82.3249855,166.064245 82.6782254,166 83.0796403,166 C83.4864075,166 83.8436615,166.064245 84.151413,166.192737 C84.4591645,166.32123 84.6973338,166.505585 84.8659281,166.74581 C85.0345224,166.986035 85.1188182,167.268155 85.1188182,167.592179 C85.1188182,167.877096 85.0505787,168.127094 84.9140976,168.342179 C84.7776165,168.557264 84.5809261,168.72905 84.3240206,168.857542 Z M83.0796403,166.678771 C82.6996342,166.678771 82.3999155,166.763966 82.1804753,166.934358 C81.9610351,167.104749 81.8513166,167.335194 81.8513166,167.625698 C81.8513166,167.916203 81.9596971,168.145251 82.1764611,168.312849 C82.3932252,168.480448 82.694282,168.564246 83.0796403,168.564246 C83.4703509,168.564246 83.7767598,168.480448 83.998876,168.312849 C84.2209923,168.145251 84.3320488,167.916203 84.3320488,167.625698 C84.3320488,167.335194 84.2183163,167.104749 83.9908478,166.934358 C83.7633793,166.763966 83.4596465,166.678771 83.0796403,166.678771 Z M83.0796403,171.321229 C83.5238729,171.321229 83.8744367,171.224861 84.1313423,171.032123 C84.3882479,170.839385 84.5166988,170.578214 84.5166988,170.248603 C84.5166988,169.924579 84.3882479,169.668995 84.1313423,169.481844 C83.8744367,169.294692 83.5238729,169.201117 83.0796403,169.201117 C82.6354078,169.201117 82.28752,169.294692 82.0359666,169.481844 C81.7844132,169.668995 81.6586384,169.924579 81.6586384,170.248603 C81.6586384,170.578214 81.7844132,170.839385 82.0359666,171.032123 C82.28752,171.224861 82.6354078,171.321229 83.0796403,171.321229 Z M87.6637765,168.405028 C88.4666065,168.405028 89.0566776,168.562848 89.4340077,168.878492 C89.8113378,169.194136 90,169.625696 90,170.173184 C90,170.519555 89.9210562,170.831004 89.7631663,171.107542 C89.6052765,171.38408 89.3671071,171.601955 89.0486513,171.761173 C88.7301954,171.920392 88.3381526,172 87.8725112,172 C87.4764485,172 87.0937719,171.937151 86.7244701,171.811453 C86.3551684,171.685754 86.0500975,171.511174 85.8092486,171.287709 L86.1785485,170.625698 C86.3712277,170.815643 86.6174252,170.967877 86.9171484,171.082402 C87.2168715,171.196928 87.5326466,171.25419 87.864483,171.25419 C88.2873068,171.25419 88.6151241,171.160615 88.8479448,170.973464 C89.0807655,170.786312 89.1971741,170.530728 89.1971741,170.206704 C89.1971741,169.854747 89.0687232,169.58799 88.8118176,169.406425 C88.554912,169.224859 88.1160382,169.134078 87.495183,169.134078 L86.2186898,169.134078 L86.5157354,166.067039 L89.6868979,166.067039 L89.6868979,166.796089 L87.1901092,166.796089 L87.0375723,168.405028 L87.6637765,168.405028 Z" id="0107073080291785" fill="#173558" mask="url(#mask-10)"></path>
        <rect id="Rectangle" fill="#000000" mask="url(#mask-10)" x="17" y="131" width="1" height="33"></rect>
        <rect id="Rectangle" fill="#000000" mask="url(#mask-10)" x="15" y="131" width="1" height="33"></rect>
        <rect id="Rectangle" fill="#000000" mask="url(#mask-10)" x="21" y="131" width="3" height="33"></rect>
        <rect id="Rectangle" fill="#000000" mask="url(#mask-10)" x="19" y="131" width="1" height="33"></rect>
        <rect id="Rectangle" fill="#000000" mask="url(#mask-10)" x="25" y="131" width="1" height="33"></rect>
        <rect id="Rectangle" fill="#000000" mask="url(#mask-10)" x="29" y="131" width="3" height="33"></rect>
        <rect id="Rectangle" fill="#000000" mask="url(#mask-10)" x="27" y="131" width="1" height="33"></rect>
        <rect id="Rectangle" fill="#000000" mask="url(#mask-10)" x="34" y="131" width="1" height="33"></rect>
        <rect id="Rectangle" fill="#000000" mask="url(#mask-10)" x="38" y="131" width="3" height="33"></rect>
        <rect id="Rectangle" fill="#000000" mask="url(#mask-10)" x="36" y="131" width="1" height="33"></rect>
        <rect id="Rectangle" fill="#000000" mask="url(#mask-10)" x="82" y="131" width="3" height="33"></rect>
        <rect id="Rectangle" fill="#000000" mask="url(#mask-10)" x="87" y="131" width="1" height="33"></rect>
        <rect id="Rectangle" fill="#000000" mask="url(#mask-10)" x="89" y="131" width="1" height="33"></rect>
        <rect id="Rectangle" fill="#000000" mask="url(#mask-10)" x="47" y="131" width="1" height="33"></rect>
        <rect id="Rectangle" fill="#000000" mask="url(#mask-10)" x="51" y="131" width="3" height="33"></rect>
        <rect id="Rectangle" fill="#000000" mask="url(#mask-10)" x="49" y="131" width="1" height="33"></rect>
        <rect id="Rectangle" fill="#000000" mask="url(#mask-10)" x="42" y="131" width="1" height="33"></rect>
        <rect id="Rectangle" fill="#000000" mask="url(#mask-10)" x="44" y="131" width="1" height="33"></rect>
        <rect id="Rectangle" fill="#000000" mask="url(#mask-10)" x="60" y="131" width="1" height="33"></rect>
        <rect id="Rectangle" fill="#000000" mask="url(#mask-10)" x="55" y="131" width="1" height="33"></rect>
        <rect id="Rectangle" fill="#000000" mask="url(#mask-10)" x="65" y="131" width="3" height="33"></rect>
        <rect id="Rectangle" fill="#000000" mask="url(#mask-10)" x="63" y="131" width="1" height="33"></rect>
        <rect id="Rectangle" fill="#000000" mask="url(#mask-10)" x="69" y="131" width="1" height="33"></rect>
        <rect id="Rectangle" fill="#000000" mask="url(#mask-10)" x="73" y="131" width="3" height="33"></rect>
        <rect id="Rectangle" fill="#000000" mask="url(#mask-10)" x="71" y="131" width="1" height="33"></rect>
        <rect id="Rectangle" fill="#000000" mask="url(#mask-10)" x="77" y="131" width="1" height="33"></rect>
        <rect id="Rectangle" fill="#000000" mask="url(#mask-10)" x="79" y="131" width="1" height="33"></rect>
        <rect id="Rectangle" fill="#000000" mask="url(#mask-10)" x="57" y="131" width="1" height="33"></rect>
    </g>
</svg>