<?xml version="1.0" encoding="UTF-8"?>
<svg width="309px" height="262px" viewBox="0 0 309 262" version="1.1" xmlns="http://www.w3.org/2000/svg" xmlns:xlink="http://www.w3.org/1999/xlink">
    <!-- Generator: Sketch 48.2 (47327) - http://www.bohemiancoding.com/sketch -->
    <title>Illustrations / Parcel tailwind orange</title>
    <desc>Created with Sketch.</desc>
    <defs>
        <path d="M68.9499693,84.2697975 C68.9499693,84.2697975 88.7550368,91.3894356 98.5413006,65.070092 C102.233503,56.3498466 97.8809632,34.8247423 78.5725706,29.1110859 C59.263546,23.3974294 16.6689387,4.51051534 9.36731288,1.28781595 C2.06631902,-1.93488344 -2.49980368,6.36641104 1.85779141,13.081 C4.91935583,17.7987791 20.2575092,35.7985031 20.2575092,35.7985031 C20.2575092,35.7985031 15.3381534,33.8901595 13.4885767,35.6695951 C11.639,37.4490307 12.3574724,45.886816 28.3300552,59.4474294 C23.4675706,57.641454 24.4425951,64.6789448 31.3404356,69.2981472 C38.2376442,73.9173497 40.8518221,75.5552393 40.8518221,75.5552393 C40.8518221,75.5552393 34.6149509,76.3495399 39.7472577,80.146638 C44.8808282,83.9443681 62.7579632,91.0690613 68.9499693,84.2697975" id="path-1"></path>
        <path d="M0.27108589,58.4938896 L0.27108589,136.25889 C0.27108589,142.913448 3.90073006,149.03784 9.73697546,152.233368 L82.2483436,191.935761 C87.697865,194.920233 94.2923926,194.920233 99.7419141,191.935761 L172.253282,152.233368 C178.089528,149.03784 181.71854,142.913448 181.71854,136.25889 L181.71854,58.4938896 C181.71854,51.8393313 178.089528,45.7149387 172.253282,42.5187791 L99.7419141,2.8163865 C94.2923926,-0.167453988 87.697865,-0.167453988 82.2483436,2.8163865 L9.73697546,42.5187791 C3.90073006,45.7149387 0.27108589,51.8393313 0.27108589,58.4938896" id="path-3"></path>
        <path d="M68.3370245,84.7380368 C68.3370245,84.7380368 88.052362,92.101589 98.1634233,65.9048344 C101.962417,57.2313497 97.8752761,35.6537975 78.6389202,29.7019141 C59.4025644,23.7506626 17.0436564,4.33990184 9.78310429,1.02684049 C2.52192025,-2.28558896 -2.14593865,5.95883436 2.1282454,12.7265031 C5.13167485,17.4815644 20.246135,35.6695951 20.246135,35.6695951 C20.246135,35.6695951 15.3507914,33.6999571 13.4797301,35.4572761 C11.6080368,37.2133313 12.2222454,45.6593313 28.0267423,59.4158344 C23.1863742,57.5504601 24.0741963,64.5993252 30.9145337,69.3032025 C37.7548712,74.0070798 40.3481963,75.6771963 40.3481963,75.6771963 C40.3481963,75.6771963 34.1018466,76.3944049 39.1873926,80.2546933 C44.2729387,84.1156135 62.0609755,91.4602086 68.3370245,84.7380368" id="path-5"></path>
        <polygon id="path-7" points="0.0379141104 0.561128834 308.458305 0.561128834 308.458305 64.2574663 0.0379141104 64.2574663"></polygon>
    </defs>
    <g id="Symbols" stroke="none" stroke-width="1" fill="none" fill-rule="evenodd">
        <g id="Illustrations-/-Parcel-tailwind-orange">
            <g id="parcel-orange-flying">
                <path d="M182.167883,257 C178.120345,256.999481 174.066576,255.97812 170.381473,253.92761 C152.04423,243.723868 117.609262,224.582829 97.1420637,213.340072 C93.0519474,211.093286 92.9153851,204.996276 96.9650002,202.67316 L97.0522338,202.623312 L154.417713,170.117869 L175.343407,181.575595 C175.971177,181.919338 176.617122,182.21479 177.277086,182.462471 C178.969835,183.096992 180.750336,183.414772 182.530837,183.414772 C182.590032,183.414772 182.649226,183.414252 182.70842,183.413733 C183.846612,183.400233 184.984803,183.25692 186.098071,182.983796 C187.345824,182.67744 188.562941,182.208039 189.718268,181.575595 L210.859969,170 L268.433147,202.623312 L268.507919,202.665891 C271.977015,204.652534 271.882511,209.867341 268.403031,211.834252 L194.838572,253.414593 C190.934866,255.801576 186.55449,257 182.167883,257" id="Fill-1" fill="rgba(0,0,0,0.2)" style="mix-blend-mode: multiply;"></path>
                <path d="M199.75365,90.588816 C199.75365,90.588816 219.558718,97.708454 229.344982,71.3891104 C233.037184,62.668865 228.684644,41.1437607 209.376252,35.4301043 C190.067227,29.7164479 147.47262,10.8295337 140.170994,7.60683436 C132.87,4.38413497 128.303877,12.6854294 132.661472,19.4000184 C135.723037,24.1177975 151.06119,42.1175215 151.06119,42.1175215 C151.06119,42.1175215 146.141834,40.2091779 144.292258,41.9886135 C142.442681,43.7680491 143.161153,52.2058344 159.133736,65.7664479 C154.271252,63.9604724 155.246276,70.9979632 162.144117,75.6171656 C169.041325,80.2363681 171.655503,81.8742577 171.655503,81.8742577 C171.655503,81.8742577 165.418632,82.6685583 170.550939,86.4656564 C175.684509,90.2633865 193.561644,97.3880798 199.75365,90.588816" id="Fill-2" fill="#D4E3E5"></path>
                <g id="Group-5" transform="translate(130.803681, 6.319018)">
                    <mask id="mask-2" fill="white">
                        <use xlink:href="#path-1"></use>
                    </mask>
                    <g id="Clip-4"></g>
                    <path d="M112.245356,54.7296503 L103.706466,54.2468773 C103.706466,54.2468773 100.667018,70.7420429 81.1305092,73.7303067 C64.825546,76.2244233 55.3710307,64.9039018 54.1849509,57.8038528 C52.4415337,47.3660982 62.3067853,42.5680675 67.8618344,44.9433865 C72.5265337,46.9383006 72.4260613,51.3824663 71.8251227,55.8361104 C71.7101166,56.6942331 72.795092,56.8856994 73.1887669,56.1147791 C73.8472086,54.8275951 75.5324908,51.7546564 73.8491043,47.2814233 C70.2314663,37.6645092 58.2613497,39.7921227 52.4415337,47.3660982 C47.1841104,54.2083313 44.7980491,75.7675583 68.9499693,84.2697975 C93.1025215,92.7720368 101.667319,88.7626196 101.667319,88.7626196 L112.245356,54.7296503" id="Fill-3" fill="#FFFFFE" mask="url(#mask-2)"></path>
                </g>
                <path d="M91.8968528,88.1932761 L91.8968528,165.958276 C91.8968528,172.612834 95.5264969,178.737227 101.362742,181.932755 L173.87411,221.635147 C179.323632,224.61962 185.91816,224.61962 191.367681,221.635147 L263.879049,181.932755 C269.715294,178.737227 273.344307,172.612834 273.344307,165.958276 L273.344307,88.1932761 C273.344307,81.5387178 269.715294,75.4143252 263.879049,72.2181656 L191.367681,32.515773 C185.91816,29.5319325 179.323632,29.5319325 173.87411,32.515773 L101.362742,72.2181656 C95.5264969,75.4143252 91.8968528,81.5387178 91.8968528,88.1932761" id="Fill-6" fill="#E49264"></path>
                <g id="Group-23" transform="translate(91.625767, 29.699387)">
                    <mask id="mask-4" fill="white">
                        <use xlink:href="#path-3"></use>
                    </mask>
                    <g id="Clip-8"></g>
                    <path d="M72.7319018,164.509325 C72.5556012,164.509325 72.3774049,164.472675 72.2074233,164.392423 L53.5732699,155.69619 C52.9508466,155.405515 52.6829202,154.667454 52.9729632,154.044399 C53.1846503,153.594485 53.6339325,153.329086 54.1015399,153.329086 C54.2765767,153.329086 54.454773,153.366368 54.6241227,153.445356 L73.2582761,162.140957 C73.8800675,162.432264 74.1486258,163.170325 73.8585828,163.79338 C73.6475276,164.244558 73.1995092,164.509325 72.7319018,164.509325 M72.7319018,157.055411 C72.5556012,157.055411 72.3774049,157.018761 72.2074233,156.938509 L53.5732699,148.24354 C52.9508466,147.952233 52.6829202,147.214804 52.9729632,146.590485 C53.1840184,146.139307 53.6320368,145.873908 54.0990123,145.873908 C54.2753129,145.873908 54.4541411,145.911822 54.6241227,145.991442 L73.2582761,154.687675 C73.8800675,154.978982 74.1486258,155.716411 73.8585828,156.339466 C73.6475276,156.791276 73.1995092,157.055411 72.7319018,157.055411" id="Fill-7" fill="#E58D68" mask="url(#mask-4)"></path>
                    <path d="M84.601546,193.015049 C83.7983988,192.713632 83.0123129,192.35408 82.2483436,191.935761 L15.0405276,155.136957 C15.057589,155.107258 15.0740184,155.076926 15.0904479,155.046595 C15.7482577,153.792902 15.2654847,152.243479 14.0124233,151.585669 L2.96046012,145.784178 C1.32636196,143.12008 0.377877301,140.038926 0.279932515,136.816227 C0.283723926,136.811804 0.287515337,136.80738 0.29193865,136.802957 C0.29193865,136.802957 2.84545399,137.756497 6.58568098,137.756497 C13.2383436,137.756497 23.6457669,134.739166 30.1183374,117.969755 C33.9173313,109.29627 29.8308221,87.7187178 10.5938344,81.7674663 C7.63084663,80.8505767 4.1193681,79.6145767 0.27108589,78.1668896 L0.27108589,58.4938896 C0.27108589,55.7767117 0.876447853,53.1473681 1.9898589,50.7701534 L22.1203558,61.3374479 C22.5001288,61.5371288 22.9077055,61.6319141 23.3095951,61.6319141 C24.0969448,61.6319141 24.8621779,61.2679387 25.3544294,60.6170798 C26.0659509,60.9962209 26.7793681,61.3759939 27.5003681,61.7601902 C28.7837607,62.4458037 30.082319,63.1402638 31.3928834,63.8410429 C31.2614479,64.8723067 31.7701288,65.9231595 32.7445215,66.4343681 L53.0987117,77.1191963 C53.4791166,77.3188773 53.8866933,77.4136626 54.2879509,77.4136626 C54.8307546,77.4136626 55.362816,77.2411534 55.8019877,76.9207791 C64.6435583,81.6650982 72.8506994,86.075773 79.1109509,89.4419141 C79.1652945,89.4709816 79.2183742,89.4994172 79.2727178,89.5291166 C79.2815644,89.5335399 79.290411,89.5385951 79.2992577,89.5430184 C79.3005215,89.5436503 79.3024172,89.5449141 79.303681,89.545546 C79.9065153,89.8684479 80.520092,90.163546 81.1418834,90.4302086 C87.0109877,92.9660307 90.8807546,98.6607301 90.8409448,105.054945 C90.8358896,105.827129 90.8308344,106.644178 90.826411,107.500405 C90.8251472,107.561067 90.8245153,107.62173 90.8245153,107.683025 C90.8131411,109.452982 90.8042945,111.269699 90.7960798,113.126859 C90.7025583,132.036521 90.607773,162.911245 90.5926074,183.948521 C90.5900798,188.098853 88.0662638,191.53008 84.601546,193.015049 M53.5783252,137.437387 C51.2440798,137.437387 49.1291043,139.312239 49.1291043,141.890399 L49.1291043,156.791908 C49.1291043,158.475926 50.0807485,160.015871 51.5878344,160.769098 L72.5075767,171.228969 C73.1590675,171.555031 73.8358344,171.704791 74.494908,171.704791 C76.8285215,171.704791 78.9441288,169.829307 78.9441288,167.251779 L78.9441288,152.35027 C78.9441288,150.666252 77.9924847,149.125675 76.4853988,148.372448 L55.5656564,137.912577 C54.9141656,137.587147 54.2373988,137.437387 53.5783252,137.437387" id="Fill-9" fill="#E58D68" mask="url(#mask-4)"></path>
                    <path d="M187.850515,76.0114724 L184.674577,68.9120552 C184.868571,69.0877239 184.258153,65.0208037 183.427202,60.9538834 C182.600043,56.9052883 181.554877,52.8573252 180.868,52.993816 C180.868,52.993816 176.002988,48.8946687 172.993871,50.5382454 L102.464779,89.0583497 C102.267626,89.1752515 102.067945,89.2896258 101.868264,89.3995767 C95.1637853,93.1031534 90.8712761,100.02311 90.8245153,107.683025 C90.672227,132.367638 90.8283067,166.448632 90.9275153,183.52262 C90.9635337,189.81889 95.1922209,195.316436 101.266693,196.970123 L174.812485,216.991301 C174.812485,216.991301 196.112,160.094227 196.112,157.620331 C196.112,155.147067 187.850515,76.0114724 187.850515,76.0114724" id="Fill-10" fill="#E58372" mask="url(#mask-4)"></path>
                    <path d="M39.8647914,26.0229816 L121.490712,73.3119877 C121.490712,73.3119877 125.916552,76.2958282 125.337098,84.0265153 C125.028098,88.5073313 124.409466,92.3752025 124.409466,92.3752025 C124.409466,92.3752025 124.718466,97.4398957 128.428994,95.8354969 C132.139521,94.2304663 143.580736,88.6646748 146.054632,87.1190429 C148.528528,85.5727791 149.048583,84.717184 149.178123,81.0407791 C149.178123,76.7116196 149.107982,70.8463067 149.107982,67.8308712 C149.107982,64.8160675 148.376871,62.8470613 144.102687,60.0433129 C134.825736,54.4768896 47.1038589,5.79327607 47.1038589,5.79327607 L36.5902761,24.6561779 L39.8647914,26.0229816" id="Fill-11" fill="#FFFFFE" mask="url(#mask-4)"></path>
                    <path d="M91.2112393,194.172693 C91.4621043,192.494362 91.7312945,190.721245 92.0169141,188.864086 C92.7783558,190.67638 93.9119877,192.307319 95.3362945,193.649479 C93.9814969,193.981859 92.5963681,194.156264 91.2112393,194.172693" id="Fill-12" fill="#E58A6B" mask="url(#mask-4)"></path>
                    <path d="M95.3362945,193.649479 C93.9119877,192.307319 92.7783558,190.67638 92.0169141,188.864086 C97.5688037,152.788178 109.22992,85.4906319 109.22992,85.4906319 L124.362706,77.211454 C125.062221,78.8714601 125.555736,81.1115521 125.337098,84.0265153 C125.028098,88.5073313 124.409466,92.3752025 124.409466,92.3752025 C124.409466,92.3752025 124.64011,96.1489202 127.089994,96.1495521 C127.477982,96.1495521 127.921577,96.0547669 128.428994,95.8354969 C132.139521,94.2304663 143.580736,88.6646748 146.054632,87.1190429 C148.528528,85.5727791 149.048583,84.717184 149.178123,81.0407791 C149.178123,76.7116196 149.107982,70.8463067 149.107982,67.8308712 C149.107982,66.4204663 148.94811,65.2394417 148.340221,64.0938037 L158.126485,58.7396994 C158.126485,58.7396994 170.230564,86.8056196 181.71854,113.82827 L181.71854,136.25889 C181.71854,142.913448 178.089528,149.03784 172.253282,152.233368 L99.7419141,191.935761 C98.3359325,192.705417 96.8547546,193.276656 95.3362945,193.649479" id="Fill-13" fill="#E58372" mask="url(#mask-4)"></path>
                    <path d="M127.089994,96.1495521 C124.64011,96.1489202 124.409466,92.3752025 124.409466,92.3752025 C124.409466,92.3752025 125.028098,88.5073313 125.337098,84.0265153 C125.555736,81.1115521 125.062221,78.8714601 124.362706,77.211454 L148.340221,64.0938037 C148.94811,65.2394417 149.107982,66.4204663 149.107982,67.8308712 C149.107982,70.8463067 149.178123,76.7116196 149.178123,81.0407791 C149.048583,84.717184 148.528528,85.5727791 146.054632,87.1190429 C143.580736,88.6646748 132.139521,94.2304663 128.428994,95.8354969 C127.921577,96.0547669 127.477982,96.1495521 127.089994,96.1495521" id="Fill-14" fill="#F0B8AB" mask="url(#mask-4)"></path>
                    <path d="M90.4497975,92.3436074 C87.2846012,92.3436074 84.1156135,91.7072822 81.1418834,90.4302086 C81.1355644,90.427681 81.1286135,90.4251534 81.1222945,90.4219939 C80.507454,90.157227 79.9001963,89.8652883 79.303681,89.545546 C79.3024172,89.5449141 79.3005215,89.5436503 79.2992577,89.5430184 C79.290411,89.5385951 79.2815644,89.5335399 79.2727178,89.5291166 C79.2190061,89.4994172 79.1652945,89.4709816 79.1109509,89.4419141 C73.0219448,86.1673988 64.7895276,81.7358712 55.8108344,76.9138282 C56.1141472,76.6907669 56.3725951,76.3969325 56.559638,76.0411718 C57.2174479,74.7881104 56.7346748,73.2386871 55.4816135,72.5808773 L35.1274233,61.8960491 C34.7470184,61.6963681 34.3394417,61.6015828 33.938184,61.6015828 C33.0162393,61.6015828 32.1252577,62.1007853 31.6664969,62.9740736 C31.5211595,63.2508466 31.4314294,63.5427853 31.3935153,63.8359877 C30.0861104,63.1383681 28.7850245,62.4445399 27.5003681,61.7601902 C26.7806319,61.375362 26.065319,60.9936933 25.3563252,60.6145521 C25.4397362,60.5039693 25.5149325,60.3858037 25.5812822,60.2594233 C26.239092,59.006362 25.756319,57.4569387 24.5032577,56.7984969 L6.07068098,47.122816 C6.15977914,45.7591718 6.82390798,44.425227 8.09276687,43.5393006 C8.56795706,43.2069202 9.06147239,42.8966564 9.57394479,42.6091411 C9.57584049,42.6078773 9.579,42.6066135 9.58089571,42.6053497 C9.58468712,42.6028221 9.58911043,42.6009264 9.59290184,42.5983988 C9.60048466,42.5946074 9.60869939,42.5895521 9.61628221,42.5857607 C9.61691411,42.5851288 9.61817791,42.5844969 9.61880982,42.583865 C9.6466135,42.5686994 9.67378528,42.5535337 9.70158896,42.5383681 C9.70222086,42.5377362 9.70285276,42.5377362 9.70348466,42.5371043 C9.70790798,42.5345767 9.71169939,42.532681 9.7167546,42.5301534 C9.72370552,42.526362 9.73002454,42.5225706 9.73697546,42.5187791 L39.6720613,26.1285092 L43.6612577,28.2226319 L121.490712,73.3119877 C121.490712,73.3119877 123.169675,74.4437239 124.32416,77.1198282 L102.464779,89.0583497 C98.7630982,91.245362 94.6096074,92.3442393 90.4497975,92.3436074" id="Fill-15" fill="#E8A67A" mask="url(#mask-4)"></path>
                    <path d="M81.1418834,90.4302086 C80.520092,90.163546 79.9065153,89.8684479 79.303681,89.545546 C79.9001963,89.8652883 80.507454,90.157227 81.1222945,90.4219939 C81.1286135,90.4251534 81.1355644,90.427681 81.1418834,90.4302086 M79.2992577,89.5430184 C79.290411,89.5385951 79.2815644,89.5335399 79.2727178,89.5291166 C79.2815644,89.5335399 79.290411,89.5385951 79.2992577,89.5430184 M79.1109509,89.4419141 C72.8506994,86.075773 64.6435583,81.6650982 55.8019877,76.9207791 C55.8051472,76.9182515 55.8083067,76.9163558 55.8108344,76.9138282 C64.7895276,81.7358712 73.0219448,86.1673988 79.1109509,89.4419141 M31.3928834,63.8410429 C30.082319,63.1402638 28.7837607,62.4458037 27.5003681,61.7601902 C28.7850245,62.4445399 30.0861104,63.1383681 31.3935153,63.8359877 C31.3935153,63.8378834 31.3928834,63.8397791 31.3928834,63.8410429" id="Fill-16" fill="#E8A17D" mask="url(#mask-4)"></path>
                    <polyline id="Fill-17" fill="#EB9A88" mask="url(#mask-4)" points="102.464779 89.0583497 102.464779 89.0583497 124.32416 77.1198282 102.464779 89.0583497"></polyline>
                    <path d="M148.302307,64.0242945 C147.602791,62.7459571 146.33646,61.5086933 144.102687,60.0433129 C137.226331,55.9176258 87.2555337,28.1044663 61.8505521,13.9846196 L72.3938344,8.21219632 L78.9953129,11.677546 C79.3757178,11.877227 79.7832945,11.9720123 80.1845521,11.9720123 C81.1071288,11.9720123 81.9981104,11.4728098 82.4562393,10.5995215 C83.1140491,9.34582822 82.6312761,7.79703681 81.3782147,7.13859509 L77.7921718,5.25615951 L82.2483436,2.8163865 C84.9731043,1.32446626 87.9841166,0.578822086 90.9951288,0.578822086 C94.0061411,0.578822086 97.0171534,1.32446626 99.7419141,2.8163865 L172.253282,42.5187791 L172.270344,42.5282577 C172.300675,42.5446871 172.330374,42.5611166 172.360706,42.5781779 C175.597939,44.405638 175.537908,49.1069877 172.294356,50.920546 L148.302307,64.0242945" id="Fill-18" fill="#E8A67A" mask="url(#mask-4)"></path>
                    <path d="M148.302307,64.0242945 L172.294356,50.920546 C172.279822,50.9287607 172.264656,50.9369755 172.250123,50.9451902 L148.302307,64.0242945" id="Fill-19" fill="#EB9A88" mask="url(#mask-4)"></path>
                    <path d="M124.32416,77.1198282 C123.169675,74.4437239 121.490712,73.3119877 121.490712,73.3119877 L43.6612577,28.2226319 L53.0987117,33.1767423 C53.4791166,33.3764233 53.8866933,33.4712086 54.2879509,33.4712086 C55.2105276,33.4712086 56.1015092,32.9720061 56.559638,32.0987178 C57.2174479,30.8456564 56.7346748,29.2962331 55.4816135,28.6384233 L45.0703988,23.1724724 L61.8505521,13.9846196 C87.2555337,28.1044663 137.226331,55.9176258 144.102687,60.0433129 C146.33646,61.5086933 147.602791,62.7459571 148.302307,64.0242945 L124.32416,77.1198282" id="Fill-20" fill="#FFFFFE" mask="url(#mask-4)"></path>
                    <path d="M74.494908,171.704791 C73.8358344,171.704791 73.1590675,171.555031 72.5075767,171.228969 L51.5878344,160.769098 C50.0807485,160.015871 49.1291043,158.475926 49.1291043,156.791908 L49.1291043,141.890399 C49.1291043,139.312239 51.2440798,137.437387 53.5783252,137.437387 C54.2373988,137.437387 54.9141656,137.587147 55.5656564,137.912577 L76.4853988,148.372448 C77.9924847,149.125675 78.9441288,150.666252 78.9441288,152.35027 L78.9441288,167.251779 C78.9441288,169.829307 76.8285215,171.704791 74.494908,171.704791 M54.1015399,153.329086 C53.6339325,153.329086 53.1846503,153.594485 52.9729632,154.044399 C52.6829202,154.667454 52.9508466,155.405515 53.5732699,155.69619 L72.2074233,164.392423 C72.3774049,164.472675 72.5556012,164.509325 72.7319018,164.509325 C73.1995092,164.509325 73.6475276,164.244558 73.8585828,163.79338 C74.1486258,163.170325 73.8800675,162.432264 73.2582761,162.140957 L54.6241227,153.445356 C54.454773,153.366368 54.2765767,153.329086 54.1015399,153.329086 M54.0990123,145.873908 C53.6320368,145.873908 53.1840184,146.139307 52.9729632,146.590485 C52.6829202,147.214804 52.9508466,147.952233 53.5732699,148.24354 L72.2074233,156.938509 C72.3774049,157.018761 72.5556012,157.055411 72.7319018,157.055411 C73.1995092,157.055411 73.6475276,156.791276 73.8585828,156.339466 C74.1486258,155.716411 73.8800675,154.978982 73.2582761,154.687675 L54.6241227,145.991442 C54.4541411,145.911822 54.2753129,145.873908 54.0990123,145.873908" id="Fill-21" fill="#F5D4C1" mask="url(#mask-4)"></path>
                    <path d="M6.58568098,137.756497 C2.84545399,137.756497 0.29193865,136.802957 0.29193865,136.802957 C0.287515337,136.80738 0.283723926,136.811804 0.279932515,136.816227 C0.274245399,136.63108 0.27108589,136.444669 0.27108589,136.25889 L0.27108589,78.1668896 C4.1193681,79.6145767 7.63084663,80.8505767 10.5938344,81.7674663 C29.8308221,87.7187178 33.9173313,109.29627 30.1183374,117.969755 C23.6457669,134.739166 13.2383436,137.756497 6.58568098,137.756497" id="Fill-22" fill="#E0825F" mask="url(#mask-4)"></path>
                </g>
                <path d="M98.036411,157.406748 C98.036411,157.406748 117.751748,164.770301 127.86281,138.573546 C131.661804,129.900061 127.574663,108.322509 108.338307,102.370626 C89.1019509,96.4193742 46.7430429,77.0086135 39.4824908,73.6955521 C32.2213067,70.3831227 27.5534479,78.627546 31.8276319,85.3952147 C34.8310613,90.1502761 49.9455215,108.338307 49.9455215,108.338307 C49.9455215,108.338307 45.0501779,106.368669 43.1791166,108.125988 C41.3074233,109.882675 41.9216319,118.328043 57.7261288,132.084546 C52.8857607,130.219172 53.7735828,137.268037 60.6139202,141.971914 C67.4542577,146.675791 70.0475828,148.345908 70.0475828,148.345908 C70.0475828,148.345908 63.8012331,149.063117 68.8867791,152.923405 C73.9723252,156.784325 91.760362,164.12892 98.036411,157.406748" id="Fill-24" fill="#D4E3E5"></path>
                <g id="Group-27" transform="translate(29.699387, 72.668712)">
                    <mask id="mask-6" fill="white">
                        <use xlink:href="#path-5"></use>
                    </mask>
                    <g id="Clip-26"></g>
                    <path d="M111.993227,55.7343742 L103.461288,55.1467055 C103.461288,55.1467055 100.218368,71.6020613 80.6464724,74.3495706 C64.3118098,76.6421104 54.9975767,65.2059509 53.8993313,58.092 C52.2848221,47.6333926 62.2082086,42.957319 67.7341902,45.4015153 C72.3736135,47.4539325 72.2187975,51.8955706 71.5628834,56.3416319 C71.4365031,57.1978589 72.5195828,57.403227 72.9227362,56.637362 C73.5969755,55.3577607 75.3195399,52.3063067 73.6923926,47.8128528 C70.1935521,38.1523374 58.1981595,40.131454 52.2848221,47.6333926 C46.9439877,54.409908 44.2912638,75.9381718 68.3370245,84.7380368 C92.3821534,93.5372699 100.996239,89.6346442 100.996239,89.6346442 L111.993227,55.7343742" id="Fill-25" fill="#FFFFFE" mask="url(#mask-6)"></path>
                </g>
                <path d="M135.090503,22.724454 L115.999485,12.7031227 C114.746423,12.044681 114.26365,10.4952577 114.92146,9.24219632 C115.380221,8.36890798 116.271202,7.86970552 117.193147,7.86970552 C117.594405,7.86970552 118.001982,7.9644908 118.382387,8.16417178 L131.006521,14.7909264 C131.15565,16.3081227 131.684552,17.8941963 132.661472,19.4000184 C133.172049,20.1867362 134.024485,21.3437485 135.090503,22.724454" id="Fill-28" fill="#FFFFFE"></path>
                <path d="M164.019601,37.9115828 L135.090503,22.724454 C134.024485,21.3437485 133.172049,20.1867362 132.661472,19.4000184 C131.684552,17.8941963 131.15565,16.3081227 131.006521,14.7909264 L169.417939,34.955546 L164.019601,37.9115828" id="Fill-29" fill="#E8EFF0"></path>
                <path d="M171.810319,41.6713988 C171.409061,41.6713988 171.001485,41.5766135 170.62108,41.3769325 L164.019601,37.9115828 L169.417939,34.955546 L173.003982,36.8379816 C174.257043,37.4964233 174.739816,39.0452147 174.082006,40.298908 C173.623877,41.1721963 172.732896,41.6713988 171.810319,41.6713988" id="Fill-30" fill="#F2CAA6"></path>
                <path d="M103.017061,5.33009202 C102.34219,5.33009202 101.681853,5.05711043 101.204767,4.57939264 C100.727681,4.10230675 100.454067,3.44196933 100.454067,2.76709816 C100.454067,2.09222699 100.727681,1.43188957 101.204767,0.954803681 C101.681853,0.477717791 102.34219,0.204104294 103.017061,0.204104294 C103.691933,0.204104294 104.35227,0.477717791 104.829356,0.954803681 C105.306442,1.43188957 105.580055,2.09222699 105.580055,2.76709816 C105.580055,3.44196933 105.306442,4.10230675 104.829356,4.57939264 C104.35227,5.05711043 103.691933,5.33009202 103.017061,5.33009202" id="Fill-31" fill="#FFFFFE"></path>
                <path d="M41.444546,132.166693 C41.0426564,132.166693 40.6350798,132.071908 40.2553067,131.872227 L17.4859877,119.919804 C16.2322945,119.261994 15.7501534,117.712571 16.4079632,116.458877 C16.866092,115.585589 17.7570736,115.086387 18.6796503,115.086387 C19.080908,115.086387 19.4884847,115.181172 19.8682577,115.380853 L42.6375767,127.333908 C43.8912699,127.991718 44.3740429,129.541141 43.7156012,130.794202 C43.2574724,131.667491 42.3664908,132.166693 41.444546,132.166693" id="Fill-32" fill="#D4E3E5"></path>
                <path d="M9.31676074,115.073748 C8.64188957,115.073748 7.98155215,114.800767 7.50446626,114.323049 C7.02738037,113.845963 6.75376687,113.185626 6.75376687,112.510755 C6.75376687,111.835883 7.02738037,111.175546 7.50446626,110.69846 C7.98155215,110.221374 8.64188957,109.947761 9.31676074,109.947761 C9.9916319,109.947761 10.6519693,110.221374 11.1290552,110.69846 C11.606773,111.175546 11.8797546,111.835883 11.8797546,112.510755 C11.8797546,113.185626 11.606773,113.845963 11.1290552,114.323049 C10.6519693,114.800767 9.9916319,115.073748 9.31676074,115.073748" id="Fill-33" fill="#D4E3E5"></path>
                <path d="M118.104982,32.792546 C117.703724,32.792546 117.296147,32.6977607 116.915742,32.4980798 L94.5691656,20.767454 C93.3154724,20.1096442 92.8326994,18.559589 93.4911411,17.3065276 C93.9492699,16.4332393 94.8402515,15.9340368 95.7628282,15.9340368 C96.1640859,15.9340368 96.5716626,16.0288221 96.9514356,16.2285031 L119.298644,27.9591288 C120.552337,28.6175706 121.034479,30.1669939 120.376669,31.4200552 C119.91854,32.2933436 119.027558,32.792546 118.104982,32.792546" id="Fill-34" fill="#D4E3E5"></path>
                <path d="M127.889982,38.1529693 C127.21511,38.1529693 126.554773,37.8793558 126.077687,37.4022699 C125.599969,36.9245521 125.326988,36.2648466 125.326988,35.5899755 C125.326988,34.9144724 125.599969,34.2547669 126.077687,33.777681 C126.554773,33.2999632 127.21511,33.0269816 127.889982,33.0269816 C128.564853,33.0269816 129.22519,33.2999632 129.702276,33.777681 C130.179362,34.2547669 130.452975,34.9144724 130.452975,35.5899755 C130.452975,36.2648466 130.179362,36.9245521 129.702276,37.4022699 C129.22519,37.8793558 128.564853,38.1529693 127.889982,38.1529693" id="Fill-35" fill="#D4E3E5"></path>
                <path d="M66.6940798,166.781644 C66.2928221,166.781644 65.8852454,166.686859 65.5054724,166.487178 L25.087135,145.269178 C23.8334417,144.611368 23.3506687,143.061945 24.0091104,141.808252 C24.4672393,140.934963 25.3582209,140.436393 26.2801656,140.436393 C26.6820552,140.436393 27.0896319,140.530546 27.4694049,140.730227 L67.8877423,161.948227 C69.1414356,162.606669 69.6242086,164.156092 68.9657669,165.409153 C68.507638,166.282442 67.6166564,166.781644 66.6940798,166.781644" id="Fill-36" fill="#FFFFFE"></path>
                <path d="M104.444528,186.11784 C104.04327,186.11784 103.635693,186.023687 103.255288,185.824006 L82.9010982,175.139178 C81.6480368,174.480736 81.1652638,172.931313 81.8230736,171.678252 C82.2818344,170.804963 83.172816,170.305761 84.0947607,170.305761 C84.4960184,170.305761 84.9035951,170.400546 85.284,170.600227 L94.586227,175.483564 C96.2165337,178.140712 98.5299264,180.381436 101.362742,181.932755 L106.666294,184.836344 C106.194896,185.653393 105.334245,186.118472 104.444528,186.11784" id="Fill-37" fill="#FFFFFE"></path>
                <path d="M106.666294,184.836344 L101.362742,181.932755 C98.5299264,180.381436 96.2165337,178.140712 94.586227,175.483564 L105.63819,181.285055 C106.891252,181.942865 107.374025,183.492288 106.716215,184.745982 C106.699785,184.776313 106.683356,184.806644 106.666294,184.836344" id="Fill-38" fill="#EEB996"></path>
                <path d="M93.6156258,80.4695399 L66.5556933,66.2643865 C65.3026319,65.6065767 64.8198589,64.0571534 65.4776687,62.804092 C65.9364294,61.9308037 66.827411,61.4316012 67.7493558,61.4316012 C68.1506135,61.4316012 68.5581902,61.5263865 68.9385951,61.7254356 L96.4370675,76.1612331 C95.2958528,77.4578957 94.3461043,78.9100061 93.6156258,80.4695399" id="Fill-39" fill="#D4E3E5"></path>
                <path d="M116.980196,90.3164663 C110.082988,86.6463804 103.649595,83.2416933 98.320135,80.455638 C97.393135,79.9703374 96.4086319,79.7441166 95.4437178,79.7441166 C94.9097607,79.7441166 94.3808589,79.8136258 93.8709141,79.9469571 C93.7830798,80.1200982 93.697773,80.2938712 93.6156258,80.4695399 C94.3461043,78.9100061 95.2958528,77.4578957 96.4370675,76.1612331 L97.6964479,76.8222025 C97.579546,78.6098528 98.4509387,80.4480552 100.243012,81.3984356 C105.072638,83.9601656 110.811571,87.0179387 116.982092,90.3139387 C116.98146,90.3145706 116.980828,90.3158344 116.980196,90.3164663" id="Fill-40" fill="#EBB48C"></path>
                <path d="M114.935362,91.3313006 C114.533472,91.3313006 114.125896,91.2365153 113.746123,91.0368344 L93.6156258,80.4695399 C93.697773,80.2938712 93.7830798,80.1200982 93.8709141,79.9469571 C94.3808589,79.8136258 94.9097607,79.7441166 95.4437178,79.7441166 C96.4086319,79.7441166 97.393135,79.9703374 98.320135,80.455638 C103.649595,83.2416933 110.082988,86.6463804 116.980196,90.3164663 C116.487945,90.9673252 115.722712,91.3313006 114.935362,91.3313006" id="Fill-41" fill="#ECB190"></path>
                <path d="M116.982092,90.3139387 C110.811571,87.0179387 105.072638,83.9601656 100.243012,81.3984356 C98.4509387,80.4480552 97.579546,78.6098528 97.6964479,76.8222025 L116.129025,86.4978834 C117.382086,87.1563252 117.864859,88.7057485 117.207049,89.9588098 C117.140699,90.0851902 117.065503,90.2033558 116.982092,90.3139387" id="Fill-42" fill="#F0C4A1"></path>
                <path d="M145.913718,107.113049 C145.51246,107.113049 145.104883,107.018264 144.724479,106.818583 L124.370288,96.1337546 C123.395896,95.622546 122.887215,94.5716933 123.01865,93.5404294 C131.036221,97.8291472 139.489172,102.359883 147.427755,106.620166 C146.988583,106.94054 146.456521,107.113049 145.913718,107.113049" id="Fill-43" fill="#ECB190"></path>
                <path d="M147.436601,106.613215 C139.559313,102.382632 131.10889,97.8525276 123.019282,93.5353742 C123.057196,93.2421718 123.146926,92.9502331 123.292264,92.6734601 C123.751025,91.8001718 124.642006,91.3009693 125.563951,91.3009693 C125.965209,91.3009693 126.372785,91.3957546 126.75319,91.5954356 L147.10738,102.280264 C148.360442,102.938074 148.843215,104.487497 148.185405,105.740558 C147.998362,106.096319 147.739914,106.390153 147.436601,106.613215" id="Fill-44" fill="#F0C4A1"></path>
                <path d="M147.427755,106.620166 C139.489172,102.359883 131.036221,97.8291472 123.01865,93.5404294 C123.01865,93.5391656 123.019282,93.5372699 123.019282,93.5353742 C131.10889,97.8525276 139.559313,102.382632 147.436601,106.613215 C147.434074,106.615742 147.430914,106.617638 147.427755,106.620166" id="Fill-45" fill="#EFC1A5"></path>
                <path d="M131.297828,55.8278957 L104.120994,41.560816 C102.867301,40.9030061 102.38516,39.3535828 103.042969,38.1005215 C103.501098,37.2272331 104.39208,36.7280307 105.314656,36.7280307 C105.715914,36.7280307 106.123491,36.822816 106.503896,37.0224969 L136.696166,52.8718589 L131.297828,55.8278957" id="Fill-46" fill="#FFFFFE"></path>
                <polyline id="Fill-47" fill="#EEBC92" points="131.297828 55.8278957 131.297828 55.8278957 136.696166 52.8718589 131.490558 55.7223681 131.297828 55.8278957"></polyline>
                <polyline id="Fill-48" fill="#F2CAA6" points="135.287025 57.9220184 131.297828 55.8278957 131.490558 55.7223681 135.287025 57.9220184"></polyline>
                <path d="M145.913718,63.1705951 C145.51246,63.1705951 145.104883,63.0758098 144.724479,62.8761288 L135.287025,57.9220184 L131.490558,55.7223681 L136.696166,52.8718589 L147.10738,58.3378098 C148.360442,58.9956196 148.843215,60.5450429 148.185405,61.7981043 C147.727276,62.6713926 146.836294,63.1705951 145.913718,63.1705951" id="Fill-49" fill="#FFFFFE"></path>
                <path d="M81.5949571,29.6071288 C81.1930675,29.6071288 80.7854908,29.5123436 80.4057178,29.3132945 L55.2092638,16.0856933 C53.9562025,15.4278834 53.4734294,13.8784601 54.1312393,12.6253988 C54.59,11.7521104 55.4803497,11.252908 56.4029264,11.252908 C56.804184,11.252908 57.2117607,11.3476933 57.5921656,11.5473742 L82.7879877,24.7743436 C84.041681,25.4321534 84.524454,26.9815767 83.8660123,28.2352699 C83.4078834,29.1079264 82.5169018,29.6071288 81.5949571,29.6071288" id="Fill-50" fill="#FFFFFE"></path>
                <path d="M91.4475706,34.318589 C90.7726994,34.318589 90.112362,34.0449755 89.6352761,33.5672577 C89.1575583,33.0901718 88.8845767,32.4298344 88.8845767,31.7549632 C88.8845767,31.080092 89.1575583,30.4197546 89.6352761,29.9426687 C90.112362,29.4655828 90.7726994,29.1919693 91.4475706,29.1919693 C92.1224417,29.1919693 92.7827791,29.4655828 93.259865,29.9426687 C93.7369509,30.4197546 94.0105644,31.080092 94.0105644,31.7549632 C94.0105644,32.4298344 93.7369509,33.0901718 93.259865,33.5672577 C92.7827791,34.0449755 92.1224417,34.318589 91.4475706,34.318589" id="Fill-51" fill="#FFFFFE"></path>
                <g id="Group-57" transform="translate(0.000000, 38.546012)">
                    <mask id="mask-8" fill="white">
                        <use xlink:href="#path-7"></use>
                    </mask>
                    <g id="Clip-53"></g>
                    <path d="M22.273908,64.2574663 C21.443589,62.739638 20.1955828,61.491 18.6771227,60.660681 C20.1955828,59.830362 21.443589,58.5823558 22.273908,57.0651595 C23.1035951,58.5823558 24.3516012,59.830362 25.8700613,60.660681 C24.3516012,61.491 23.1035951,62.739638 22.273908,64.2574663" id="Fill-52" fill="#FFFFFE" mask="url(#mask-8)"></path>
                    <path d="M6.41506748,47.2239202 C4.93388957,44.5162209 2.70769939,42.2893988 0,40.8088528 C2.70769939,39.3276748 4.93388957,37.1014847 6.41506748,34.3937853 C7.8956135,37.1014847 10.1224356,39.3276748 12.830135,40.8088528 C10.1224356,42.2893988 7.8956135,44.5162209 6.41506748,47.2239202" id="Fill-54" fill="#F8C361" mask="url(#mask-8)"></path>
                    <path d="M36.6104969,13.3912638 C35.129319,10.6835644 32.9031288,8.45737423 30.1954294,6.97619632 C32.9031288,5.49565031 35.129319,3.26946012 36.6104969,0.561128834 C38.0910429,3.26946012 40.3172331,5.49565031 43.0249325,6.97619632 C40.3172331,8.45737423 38.0910429,10.6835644 36.6104969,13.3912638" id="Fill-55" fill="#F8C361" mask="url(#mask-8)"></path>
                    <path d="M294.700693,29.1009755 C294.794847,29.1818589 294.916804,29.2305153 295.048871,29.2305153 C295.699098,29.232411 296.325945,29.2374663 296.931307,29.2425215 C301.817804,29.284227 305.348871,29.3145583 307.259742,27.0946871 C308.955767,25.125681 308.839497,22.4400982 306.989288,20.8464417 C305.415853,19.4910123 303.539104,19.7873742 302.38146,20.1823129 C302.600098,18.9791718 302.615264,17.0790429 301.040564,15.7236135 C299.19162,14.130589 296.517411,14.413681 294.822018,16.3826871 C292.909883,18.6019264 293.463429,22.0893926 294.229294,26.9164908 C294.324712,27.5130061 294.422656,28.1329018 294.520601,28.775546 C294.54019,28.9063497 294.60654,29.020092 294.700693,29.1009755" id="Fill-56" fill="#D8232A" mask="url(#mask-8)"></path>
                </g>
            </g>
        </g>
    </g>
</svg>
